<?xml version="1.0" encoding="utf-8"?>
<!-- Generator: Adobe Illustrator 27.5.0, SVG Export Plug-In . SVG Version: 6.00 Build 0)  -->
<svg version="1.1" xmlns="http://www.w3.org/2000/svg" xmlns:xlink="http://www.w3.org/1999/xlink" x="0px" y="0px"
	 viewBox="0 0 3710 3710" style="enable-background:new 0 0 3710 3710;" xml:space="preserve">
<g id="Background">
	<g>
		<g>
			<rect style="fill:#FFFFFF;" width="3710" height="3710"/>
		</g>
	</g>
</g>
<g id="Illustration">
	<g>
		<path style="fill:#F4F7FA;" d="M2961.792,2926.532c-75.481,77.804-143.019,123.539-194.729,158.066
			c-504.312,336.733-1080.795,239.679-1259.029,206.506c-287.559-53.521-530.299-91.277-738.856-279.7
			C295.275,2583.25,318.325,1690.09,680.445,1136.817c42.937-65.602,404.509-601.565,982.24-677.086
			c14.13-1.847,24.674-2.899,33.908-3.877c89.374-9.463,643.205-59.405,1094.798,318.941
			c64.644,54.158,168.674,151.846,265.143,300.835C3409.271,1620.403,3410.389,2464.136,2961.792,2926.532z"/>
		<g>
			<g>
				
					<linearGradient id="SVGID_1_" gradientUnits="userSpaceOnUse" x1="1884.2352" y1="1642.0281" x2="1197.8025" y2="2419.311" gradientTransform="matrix(0.9895 -0.1447 0.1447 0.9895 -639.3816 136.1145)">
					<stop  offset="0.0036" style="stop-color:#E38DDD"/>
					<stop  offset="1" style="stop-color:#9571F6"/>
				</linearGradient>
				<path style="fill:url(#SVGID_1_);" d="M2086.607,2637.802c-569.042,97.712-744.03,21.973-795.699-68.952
					c-30.041-52.864-33.142-136.811-118.838-242.786c-72.224-89.315-113.775-83.796-144.709-152.278
					c-53.659-118.788,48.692-185.564,6.981-300.606C988.675,1747.223,845,1769.396,782.719,1618.974
					c-34.068-82.281,5.922-96.157-24.403-178.159c-61.816-167.154-243.935-152.633-304.438-303.392
					c-35.224-87.767-17.095-201.315,40.855-268.195c116.232-134.145,394.533-82.699,551.946,41.692
					c20.278,16.024,172.893,140.136,187.668,323.922c8.915,110.889-38.854,162.594,0.507,230.108
					c55.527,95.246,181.27,44.954,236.495,129.569c74.829,114.653-102.667,288.753-17.148,417.783
					c33.1,49.941,68.089,36.529,101.18,93.881c54.42,94.323-8.999,184.705,3.519,263.215
					C1572.342,2453.702,1678.505,2556.659,2086.607,2637.802z"/>
				<path style="opacity:0.28;fill:#FFFFFF;" d="M1033.995,1172.945c73.841,170.386-46.526,278.069,39.933,412.471
					c70.216,109.152,180.94,86.841,211.219,188.461c29.017,97.394-64.773,144.443-39.117,255.69
					c21.147,91.695,92.346,92.158,163.465,210.751c71.589,119.375,42.644,190.939,79.41,263.858
					c39.469,78.28,151.454,151.686,452.843,155.975c45.212-6.116,93.403-13.515,144.86-22.35
					c-408.102-81.143-514.265-184.099-527.707-268.405c-12.518-78.509,50.901-168.892-3.519-263.215
					c-33.09-57.352-68.08-43.941-101.18-93.881c-85.519-129.03,91.977-303.13,17.149-417.783
					c-55.226-84.615-180.969-34.323-236.496-129.569c-39.361-67.513,8.409-119.219-0.507-230.108
					c-14.775-183.786-167.391-307.897-187.668-323.922c-157.413-124.391-435.714-175.837-551.946-41.692
					c-0.559,0.645-1.089,1.322-1.64,1.975c77.728,2.76,173.028,18.597,271.702,65.648
					C841.423,973.389,975.147,1037.154,1033.995,1172.945z"/>
			</g>
			<g>
				<g>
					<defs>
						<path id="SVGID_00000146473360786521211190000013546682301438453635_" d="M1903.576,2696.554
							c-192.455-48.951-247.108-108.295-255.557-158.103c-13.829-81.517,97.081-131.757,82.235-224.653
							c-17.104-107.022-178.513-129.22-173.539-199.575c5.375-76.045,195.401-70.606,234.619-180.087
							c35.552-99.247-101.52-157.003-100.466-301.161c1.258-172.113,197.542-212.509,232.038-408.445
							c23.554-133.793-44.628-247.523-98.135-336.772c-120.391-200.817-367.735-396.073-647.63-376.283
							c-38.177,2.7-261.005,18.456-316.196,149.109c-55.949,132.445,77.61,342.152,214.249,453.289
							c99.038,80.554,182.038,94.962,186.415,158.384c5.901,85.501-140.98,116.755-154.921,241.346
							c-7.371,65.872,26.413,122.145,59.644,177.497c75.324,125.464,148.779,120.785,159.556,190.307
							c14.747,95.129-118.12,133.989-147.615,276.316c-21.015,101.406,24.032,189.779,49.414,239.576
							C1326.632,2591.412,1593.12,2702.585,1903.576,2696.554z"/>
					</defs>
					
						<linearGradient id="SVGID_00000017488562106440038090000000137016149871856554_" gradientUnits="userSpaceOnUse" x1="1336.054" y1="517.2339" x2="1498.5868" y2="1866.7506">
						<stop  offset="0" style="stop-color:#AA80F9"/>
						<stop  offset="0.9964" style="stop-color:#6165D7"/>
					</linearGradient>
					
						<use xlink:href="#SVGID_00000146473360786521211190000013546682301438453635_"  style="overflow:visible;fill:url(#SVGID_00000017488562106440038090000000137016149871856554_);"/>
					<clipPath id="SVGID_00000009573608158194901030000013124171537351766203_">
						<use xlink:href="#SVGID_00000146473360786521211190000013546682301438453635_"  style="overflow:visible;"/>
					</clipPath>
					<path style="opacity:0.7;clip-path:url(#SVGID_00000009573608158194901030000013124171537351766203_);fill:#FFFFFF;" d="
						M790.146,594.227c121.103,55.533,241.969,111.637,362.663,168.122c60.442,28.042,120.632,56.609,180.335,86.252
						c29.873,14.778,59.67,29.727,89.254,45.152c29.57,15.448,58.973,31.3,87.595,48.736c14.294,8.742,28.393,17.9,41.913,28.044
						c6.803,5,13.317,10.469,19.702,16.104c6.271,5.794,12.306,11.916,17.797,18.615c5.443,6.735,10.263,14.095,14.102,21.979
						c3.851,7.879,6.647,16.263,8.503,24.74c3.455,16.982,3.95,34.648,0.73,51.698c-3.12,17.062-9.542,33.265-17.631,48.268
						c-8.098,15.048-17.99,28.853-28.322,42.139c-20.784,26.538-43.968,50.619-66.153,75.339
						c-22.214,24.659-43.733,49.896-61.49,77.556c-8.722,13.889-16.7,28.239-22.978,43.31c-6.112,15.112-10.942,30.726-13.71,46.758
						c-5.108,32.026-3.137,65.479,6.817,96.389c5.028,15.447,12.187,30.149,20.678,44.103c8.521,13.956,18.498,27.091,28.752,40.116
						c10.275,13.034,20.95,25.913,30.74,39.669c4.968,6.811,9.538,13.966,13.936,21.226c4.198,7.39,8.297,14.88,11.573,22.781
						c6.869,15.65,11.329,32.388,13.32,49.343c2.026,16.965,1.855,34.056-0.139,50.956c-2.045,16.895-6.148,33.614-12.461,49.448
						c-6.351,15.814-14.563,30.81-23.966,44.818c-18.598,28.191-41.701,52.628-57.835,81.014
						c-8.096,14.116-13.962,29.362-16.605,45.251c-2.482,15.886-2.064,32.306,1.071,48.226c3.139,15.901,8.914,31.227,16.908,45.398
						c8.12,14.116,18.077,27.216,29.1,39.472c21.879,24.665,47.419,46.536,68.144,73.351c10.348,13.341,19.226,28.11,25.251,44.099
						c5.902,16.031,8.831,33.127,8.833,50.135c-0.088,17.001-2.957,34.145-9.155,50.052c-6.193,15.928-15.369,30.3-24.413,44.221
						c-8.888,13.903-17.766,28.047-20.238,43.923c-2.983,15.773,0.731,32.186,8.091,46.503c7.618,14.31,18.33,26.985,30.43,38.102
						c12.086,11.169,25.374,21.088,39.193,30.192c27.793,18.031,57.443,33.223,87.774,46.786
						c30.331,13.604,61.341,25.717,92.66,36.951c31.334,11.203,62.96,21.63,94.828,31.268
						c63.691,19.437,128.126,36.419,192.825,52.255l-0.106,0.445c-64.842-15.264-129.445-31.678-193.36-50.566
						c-31.981-9.364-63.735-19.522-95.223-30.467c-31.476-10.977-62.671-22.842-93.246-36.232
						c-30.579-13.352-60.535-28.355-88.814-46.346c-14.066-9.091-27.655-19.036-40.139-30.369
						c-12.501-11.268-23.739-24.284-31.853-39.397c-7.885-15.107-12.055-32.891-8.902-50.097c1.182-8.639,4.475-16.757,8.141-24.428
						c3.735-7.703,8.318-14.763,12.747-21.858c9.006-14.006,17.78-27.962,23.613-43.188c5.829-15.199,8.464-31.446,8.479-47.742
						c-0.09-16.302-2.964-32.498-8.639-47.707c-5.808-15.168-14.334-29.249-24.443-42.146
						c-20.21-25.933-45.722-47.601-68.188-72.627c-11.299-12.441-21.701-25.939-30.267-40.667
						c-8.446-14.789-14.653-30.974-18.04-47.742c-3.38-16.738-3.943-34.114-1.364-51.145c2.73-17.009,8.966-33.356,17.357-48.145
						c8.275-14.908,18.409-28.446,28.469-41.746c10.114-13.282,20.25-26.369,29.343-40.058
						c9.133-13.653,16.965-28.052,23.009-43.161c5.999-15.123,9.869-31.027,11.802-47.182c3.728-32.318,0.64-65.763-12.639-95.453
						c-12.766-30.01-34.401-55.373-55.117-81.463c-10.36-13.116-20.605-26.54-29.478-41.01c-8.84-14.466-16.393-29.892-21.704-46.13
						c-10.523-32.538-12.634-67.395-7.327-101.071c2.876-16.829,7.906-33.188,14.258-48.946c6.515-15.713,14.75-30.576,23.711-44.89
						c18.225-28.487,40.077-54.148,62.369-78.984c22.257-24.873,45.299-48.915,65.563-74.893
						c10.076-12.997,19.628-26.398,27.301-40.727c7.675-14.296,13.611-29.459,16.459-45.186c2.948-15.712,2.423-31.866-0.723-47.516
						c-3.24-15.62-10.271-29.992-20.344-42.436c-5.051-6.206-10.7-11.991-16.636-17.524c-6.082-5.4-12.308-10.683-18.91-15.572
						c-13.086-9.901-26.916-18.968-40.997-27.655c-28.208-17.336-57.417-33.236-86.824-48.743
						c-29.424-15.488-59.116-30.528-88.893-45.404l-89.502-44.351c-29.797-14.875-59.942-29.032-89.907-43.561
						c-120.079-57.675-239.984-115.73-359.65-174.356L790.146,594.227z"/>
				</g>
			</g>
			<g>
				<g>
					<defs>
						<path id="SVGID_00000128465516196991535850000003834361504310001843_" d="M1793.476,2644.972
							c-46.502,24.22-122.222,59.766-220.202,87.758c-201.787,57.649-548.91,97.802-668.204-58.125
							c-14.663-19.166-53.41-69.811-48.272-132.376c5.341-65.047,53.367-85.127,46.216-125.793
							c-9.778-55.603-105.419-51.386-200.503-115.209c-80.752-54.202-177.921-168.768-168.536-303.534
							c10.292-147.772,142.565-231.793,156.953-240.619c97.766-59.968,248.43-81.658,342.628-5.909
							c83.35,67.026,91.152,185.141,96.3,263.088c11.65,176.369-62.12,255.697-8.983,317.456
							c48.39,56.243,130.467,14.746,189.289,89.785c25.137,32.066,17.958,49.607,57.247,112.358
							c29.727,47.479,61.832,82.152,75.033,94.453C1544.611,2723.5,1773.214,2651.579,1793.476,2644.972z"/>
					</defs>
					
						<linearGradient id="SVGID_00000013166891727358040740000008870047794386990985_" gradientUnits="userSpaceOnUse" x1="1185.3121" y1="2122.678" x2="1064.8185" y2="3226.4045">
						<stop  offset="0.0036" style="stop-color:#E38DDD"/>
						<stop  offset="1" style="stop-color:#9571F6"/>
					</linearGradient>
					
						<use xlink:href="#SVGID_00000128465516196991535850000003834361504310001843_"  style="overflow:visible;fill:url(#SVGID_00000013166891727358040740000008870047794386990985_);"/>
					<clipPath id="SVGID_00000111875835856664240370000003132079215381477550_">
						<use xlink:href="#SVGID_00000128465516196991535850000003834361504310001843_"  style="overflow:visible;"/>
					</clipPath>
					<path style="opacity:0.5;clip-path:url(#SVGID_00000111875835856664240370000003132079215381477550_);fill:#FFFFFF;" d="
						M1667.008,2703.544c-96,0-191.329-6.276-284.817-18.789c-282.686-37.834-314.632-101.139-325.129-121.942
						c-16.317-32.331-13.353-59.524-10.216-88.316c3.526-32.355,7.171-65.811-14.043-112.256
						c-19.352-42.36-44.577-62.031-68.971-81.056c-23.789-18.551-48.388-37.734-66.484-77.682
						c-23.316-51.474-16.251-93.24-8.771-137.46c4.103-24.244,8.344-49.312,7.893-77.396
						c-1.777-110.929-78.298-224.528-227.44-337.641l2.146-2.829c150.056,113.806,227.05,228.338,228.844,340.414
						c0.454,28.409-3.813,53.642-7.942,78.043c-7.389,43.67-14.367,84.917,8.504,135.406c17.733,39.15,40.902,57.218,65.432,76.346
						c24.732,19.286,50.305,39.23,70.016,82.38c21.621,47.333,17.754,82.813,14.345,114.116c-3.08,28.253-5.987,54.94,9.856,86.333
						c10.289,20.388,41.599,82.437,322.431,120.021c138.927,18.595,281.968,23.392,425.155,14.265l0.225,3.543
						C1760.975,2702.045,1713.906,2703.544,1667.008,2703.544z"/>
				</g>
			</g>
		</g>
		<g>
			<g>
				
					<linearGradient id="SVGID_00000160894847895671484530000008711044351576414881_" gradientUnits="userSpaceOnUse" x1="1060.678" y1="2014.0114" x2="1778.9635" y2="2014.0114">
					<stop  offset="0" style="stop-color:#FF9085"/>
					<stop  offset="1" style="stop-color:#FB6FBB"/>
				</linearGradient>
				<polygon style="fill:url(#SVGID_00000160894847895671484530000008711044351576414881_);" points="1778.964,3078.559 
					1060.678,3023.919 1060.678,1002.662 1778.964,949.464 				"/>
				<g>
					<defs>
						<polygon id="SVGID_00000068643684350949162480000002787426488176967355_" points="1116.196,2935.573 1116.196,1091.12 
							1778.964,1046.572 1778.964,2981.451 						"/>
					</defs>
					<use xlink:href="#SVGID_00000068643684350949162480000002787426488176967355_"  style="overflow:visible;fill:#FFFFFF;"/>
					<clipPath id="SVGID_00000030481482901437666950000015217038570950282929_">
						<use xlink:href="#SVGID_00000068643684350949162480000002787426488176967355_"  style="overflow:visible;"/>
					</clipPath>
					<path style="clip-path:url(#SVGID_00000030481482901437666950000015217038570950282929_);fill:#D8DEE8;" d="M3745.38,1525.59
						l-712.739,20.93c-2.375-391.351-4.333-950.535-0.471-1002.43c-0.196,2.641-1.523,16.611-8.369,32.385l-94.427-81.679
						c-10.123,23.527-10.431,43.202-11.251,95.783c-0.466,29.836-0.79,72.66-0.965,127.285
						c-0.294,91.421-0.184,217.595,0.331,375.03c0.872,267.835,2.634,537.221,2.65,539.911l0.536,81.388l244.513-4.557v586.269
						l-461.127-8.772l-275.506-551.322l-378.454,6.736l508.305-920.039l-80.398-98.224l-558.801,1020.593l-240.459,4.28
						c0.338-92.562,0.892-257.109,1.224-420.973c0.293-144.739,0.357-260.616,0.189-344.408
						c-0.335-167.096-0.949-169.005-4.36-179.597l-44.92,39.627c-1.793-5.593-2.186-10.33-2.247-11.222
						c2.353,34.766,1.302,542.245-0.103,917.466l-251.102,4.469c-45.603-269.761-152.226-900.078-155.812-917.494l-83.635,53.072
						l-0.204-1.034c4.555,24.374,98.797,584.797,161.744,959.796l9.062,53.976l526.171-3.72l-326.891,597.032l-641.541-22.892
						v142.346l683.892,31.74l413.887-749.14l412.064-2.914l192.806,389.277l-509.409-9.69v1105.781l53.361,5.095V2358.717
						l498.885,12.336l503.117,1015.797l92.619-92.173l-459.873-920.265l479.36,11.854v-677.785l518.342-9.661V1525.59z"/>
				</g>
			</g>
			<g>
				
					<linearGradient id="SVGID_00000006678035144080045390000012610313226583179397_" gradientUnits="userSpaceOnUse" x1="2497.3745" y1="1525.0663" x2="3329.6899" y2="3668.9058">
					<stop  offset="0" style="stop-color:#FF9085"/>
					<stop  offset="1" style="stop-color:#FB6FBB"/>
				</linearGradient>
				<polygon style="fill:url(#SVGID_00000006678035144080045390000012610313226583179397_);" points="2268.882,2962.417 
					3106.609,2962.417 3106.609,1068.413 2268.882,1068.413 				"/>
				<g>
					<defs>
						
							<rect id="SVGID_00000034768134575468448080000010885524483951975040_" x="1792.648" y="1629.854" transform="matrix(-1.836970e-16 1 -1 -1.836970e-16 4668.5396 -639.0272)" width="1722.27" height="769.804"/>
					</defs>
					<use xlink:href="#SVGID_00000034768134575468448080000010885524483951975040_"  style="overflow:visible;fill:#FFFFFF;"/>
					<clipPath id="SVGID_00000029728241771222432650000007106726547868473233_">
						<use xlink:href="#SVGID_00000034768134575468448080000010885524483951975040_"  style="overflow:visible;"/>
					</clipPath>
					<path style="clip-path:url(#SVGID_00000029728241771222432650000007106726547868473233_);fill:#D8DEE8;" d="M3343.266,1631.406
						h-636.764c-2.22-320.161-4.051-777.689-0.44-819.844c-0.183,2.145-1.424,13.469-7.827,25.855l-88.902-74.422
						c-9.596,18.564-9.888,34.75-10.666,78.009c-0.442,24.548-0.75,59.81-0.915,104.807c-0.279,75.31-0.175,179.284,0.314,309.035
						c0.827,220.717,2.499,442.705,2.514,444.922l0.509,67.058h228.246v475.38h-436.622l-273.821-464.787h-393.16l523.473-768.644
						l-80.416-88.69l-583.874,857.334h-265.509c0.379-82.97,1.002-230.457,1.374-377.33c0.329-129.725,0.4-233.589,0.212-308.706
						c-0.376-149.804-1.066-151.561-4.898-161.316l-50.629,32.213c-2.027-5.165-2.472-9.455-2.54-10.262
						c2.661,31.449,1.473,487.886-0.116,825.401H973.615c-53.656-248.682-180.507-836.241-184.807-852.656l-100.953,42.822
						l-0.248-0.98c5.53,23.064,119.125,548.739,194.129,896.448l10.741,49.786h600.21l-367.546,539.688H351.165v135.419h822.566
						l459.773-675.107h432.165l194.042,329.367h-523.897v965.178h56.603v-893.146h509.73l480.86,816.214l85.144-81.231
						l-433.002-734.982h450.788v-547.412h457.329V1631.406z"/>
				</g>
			</g>
			<g>
				
					<linearGradient id="SVGID_00000052062199920976990910000000298280566399347085_" gradientUnits="userSpaceOnUse" x1="1578.202" y1="2012.7946" x2="2487.7048" y2="2018.3068">
					<stop  offset="0" style="stop-color:#FF9085"/>
					<stop  offset="1" style="stop-color:#FB6FBB"/>
				</linearGradient>
				<polygon style="fill:url(#SVGID_00000052062199920976990910000000298280566399347085_);" points="2268.882,2962.417 
					1778.964,3078.559 1778.964,949.464 2268.882,1068.413 				"/>
				<g>
					<defs>
						<polygon id="SVGID_00000171707895652918949720000005775131742937554363_" points="1778.964,2981.451 1778.964,1046.572 
							2268.882,1154.798 2268.882,2876.031 						"/>
					</defs>
					<use xlink:href="#SVGID_00000171707895652918949720000005775131742937554363_"  style="overflow:visible;fill:#D8DEE8;"/>
					<clipPath id="SVGID_00000155842367555411403170000008640870878400824451_">
						<use xlink:href="#SVGID_00000171707895652918949720000005775131742937554363_"  style="overflow:visible;"/>
					</clipPath>
					<path style="clip-path:url(#SVGID_00000155842367555411403170000008640870878400824451_);fill:#A2A7AE;" d="M2758.489,1681.22
						l-274.354-27.417c-1.033-302.705-1.885-735.394-0.205-774.729c-0.085,2-0.662,12.526-3.644,23.335l-41.894-83.792
						c-4.578,16.314-4.718,31.771-5.09,73.086c-0.211,23.449-0.358,57.182-0.437,100.261c-0.133,72.104-0.083,171.713,0.15,296.047
						c0.395,211.467,1.194,424.139,1.201,426.262l0.243,64.226l105.937,6.954v442.412l-208.127,11.39l-142.993-466.05
						l-224.755-14.151l294.097-751.662l-42.506-100.771l-338.318,846.973l-173.533-10.926c0.258-94.76,0.681-263.183,0.934-430.899
						c0.224-148.12,0.272-266.728,0.144-352.547c-0.255-171.16-0.724-173.296-3.33-185.161l-34.713,27.467
						c-1.401-6.327-1.709-11.354-1.756-12.297c1.839,36.72,1.018,562.276-0.08,950.994l-209.161-13.169
						c-40.94-304.854-140.587-1046.413-144.038-1067.742l-82.426,31.078l-0.206-1.292c4.587,30.322,96.983,705.347,156.133,1138.247
						l8.354,61.128l424.933,12.183l-250.817,627.916l-634.519,68.515v181.119l669.307-95.221l305.097-779.775l252.135,7.229
						l103.853,332.545l-293.506,16.063v1037.493l33.795-10.109v-952.422l281.718-20.555l233.265,746.933l38.448-85.99
						l-204.299-665.861l212.229-15.485v-505.933l192.734,12.652V1681.22z"/>
				</g>
			</g>
		</g>
		<g>
			<g>
				
					<linearGradient id="SVGID_00000024714221256167846330000017341241590017349303_" gradientUnits="userSpaceOnUse" x1="2586.625" y1="811.9138" x2="3210.105" y2="2417.8447">
					<stop  offset="0" style="stop-color:#FCB148"/>
					<stop  offset="0.0521" style="stop-color:#FDBA46"/>
					<stop  offset="0.1424" style="stop-color:#FFC244"/>
					<stop  offset="0.3183" style="stop-color:#FFC444"/>
					<stop  offset="0.4849" style="stop-color:#FDB946"/>
					<stop  offset="0.7754" style="stop-color:#F99C4D"/>
					<stop  offset="0.8658" style="stop-color:#F8924F"/>
					<stop  offset="1" style="stop-color:#F8924F"/>
				</linearGradient>
				<path style="fill:url(#SVGID_00000024714221256167846330000017341241590017349303_);" d="M3285.593,1036.68
					c0,264.551-370.623,747.299-538.35,952.224c-41.739,50.995-119.763,50.995-161.501,0
					c-167.727-204.924-538.35-687.672-538.35-952.224c0-341.92,277.181-619.1,619.1-619.1S3285.593,694.76,3285.593,1036.68z"/>
				<circle style="fill:#FFFFFF;" cx="2666.492" cy="1036.68" r="345.281"/>
				<g style="opacity:0.3;">
					
						<linearGradient id="SVGID_00000093173345345401747020000008736950641572148622_" gradientUnits="userSpaceOnUse" x1="2363.3789" y1="898.5852" x2="2986.8604" y2="2504.5195">
						<stop  offset="0" style="stop-color:#FCB148"/>
						<stop  offset="0.0521" style="stop-color:#FDBA46"/>
						<stop  offset="0.1424" style="stop-color:#FFC244"/>
						<stop  offset="0.3183" style="stop-color:#FFC444"/>
						<stop  offset="0.4849" style="stop-color:#FDB946"/>
						<stop  offset="0.7754" style="stop-color:#F99C4D"/>
						<stop  offset="0.8658" style="stop-color:#F8924F"/>
						<stop  offset="1" style="stop-color:#F8924F"/>
					</linearGradient>
					<path style="fill:url(#SVGID_00000093173345345401747020000008736950641572148622_);" d="M2663.757,1734.711
						c39.28-258.668,210.092-341.464,180.774-585.709c-33.812-281.681-283.221-356.704-289.239-607.402
						c-0.969-40.361,4.523-79.281,14.878-116.549c-296.17,46.27-522.779,302.476-522.779,611.629
						c0,264.551,370.623,747.3,538.349,952.224c24.567,30.016,61.703,42.343,96.615,37.024
						C2652.34,1912.631,2651.431,1815.883,2663.757,1734.711z"/>
				</g>
			</g>
			
				<linearGradient id="SVGID_00000065053085399960382020000003703236884291646890_" gradientUnits="userSpaceOnUse" x1="2828.7649" y1="2043.7972" x2="2423.8311" y2="2658.4299">
				<stop  offset="0" style="stop-color:#FCB148"/>
				<stop  offset="0.0521" style="stop-color:#FDBA46"/>
				<stop  offset="0.1424" style="stop-color:#FFC244"/>
				<stop  offset="0.3183" style="stop-color:#FFC444"/>
				<stop  offset="0.4849" style="stop-color:#FDB946"/>
				<stop  offset="0.7754" style="stop-color:#F99C4D"/>
				<stop  offset="0.8658" style="stop-color:#F8924F"/>
				<stop  offset="1" style="stop-color:#F8924F"/>
			</linearGradient>
			
				<circle style="fill:url(#SVGID_00000065053085399960382020000003703236884291646890_);" cx="2666.492" cy="2290.104" r="126.542"/>
		</g>
		<g>
			<path style="fill:#D8DEE8;" d="M1648.271,3082.981c-184.629-22.435-222.744,20.954-410.582,12.442
				c-184.762-8.374-197.441-52.598-348.373-43.547c-135.694,8.138-310.424,54.98-311.046,105.756
				c-0.685,55.89,209.343,134.473,410.582,105.756c111.978-15.979,104.249-48.488,211.512-62.209
				c194.323-24.86,251.45,77.771,447.907,55.989c113.673-12.604,232.342-62.242,230.176-99.535
				C1875.716,3110.619,1681.165,3086.979,1648.271,3082.981z"/>
			<g>
				<g>
					
						<linearGradient id="SVGID_00000078024657108387257650000001017013064777392001_" gradientUnits="userSpaceOnUse" x1="2953.762" y1="1375.2765" x2="2912.0288" y2="1442.7863" gradientTransform="matrix(-1 0 0 1 4550.2798 0)">
						<stop  offset="0" style="stop-color:#FFC444"/>
						<stop  offset="0.9964" style="stop-color:#F36F56"/>
					</linearGradient>
					<path style="fill:url(#SVGID_00000078024657108387257650000001017013064777392001_);" d="M1598.706,1444.168
						c-4.238-6.567-11.969-20.541-12.463-39.306c-0.961-36.464,26.085-64.906,29.721-63.273c1.958,0.88-0.527,11.564-1.918,16.298
						c-2.898,9.859-6.014,10.811-5.752,15.339c0.537,9.321,13.992,9.682,21.091,22.05c5.11,8.907,5.52,21.595,0,31.636
						C1620.226,1443.57,1599.577,1444.157,1598.706,1444.168z"/>
					
						<linearGradient id="SVGID_00000073709369071839514060000004615469484239259025_" gradientUnits="userSpaceOnUse" x1="3548.2036" y1="2174.3044" x2="3565.0559" y2="2208.9585" gradientTransform="matrix(-1 0 0 1 4550.2798 0)">
						<stop  offset="0" style="stop-color:#FFC444"/>
						<stop  offset="0.9964" style="stop-color:#F36F56"/>
					</linearGradient>
					<polygon style="fill:url(#SVGID_00000073709369071839514060000004615469484239259025_);" points="1020.994,2236.172 
						1031.389,2200.402 987.991,2168.243 960.938,2158.128 976.955,2208.177 					"/>
					
						<linearGradient id="SVGID_00000000926897213179719170000017255576538039939259_" gradientUnits="userSpaceOnUse" x1="2255.7356" y1="3056.7969" x2="2255.7356" y2="2948.0798" gradientTransform="matrix(-1 0 0 1 3300.7168 0)">
						<stop  offset="0" style="stop-color:#FFC444"/>
						<stop  offset="0.9964" style="stop-color:#F36F56"/>
					</linearGradient>
					<path style="fill:url(#SVGID_00000000926897213179719170000017255576538039939259_);" d="M1074.714,2956.604
						c0,0-23.738,59.717-17.491,86.201c-25.486-0.499-41.975-3.747-41.975-3.747s10.243-27.234,12.242-40.727
						c2.701-18.229,2.5-47.723,2.5-47.723L1074.714,2956.604z"/>
					<path style="fill:#26264F;" d="M1336.377,3096.275c-1.536,1.853-4.259,5.724-4.488,10.969c-0.124,2.85,0.528,5.195,1.347,7.351
						c4.047,10.65,10.404,12.055,17.264,23.356c4.191,6.905,3.4,8.987,7.239,12.104c5.061,4.108,11.184,4.343,16.491,4.404
						c8.967,0.103,21.879-0.217,38.135-2.154c-8.52-10.979-17.578-22.133-27.212-33.396c-4.226-4.938-8.445-9.761-12.651-14.47
						l-25.047-8.463C1343.761,3096.077,1340.068,3096.176,1336.377,3096.275z"/>
					
						<linearGradient id="SVGID_00000039106797974864675480000010919981466510585231_" gradientUnits="userSpaceOnUse" x1="1924.3654" y1="3087.7805" x2="1924.3654" y2="2956.7593" gradientTransform="matrix(-1 0 0 1 3300.7168 0)">
						<stop  offset="0" style="stop-color:#FFC444"/>
						<stop  offset="0.9964" style="stop-color:#F36F56"/>
					</linearGradient>
					<path style="fill:url(#SVGID_00000039106797974864675480000010919981466510585231_);" d="M1357.206,2974.669
						c0,0,14.317,74.702-3.901,95.621c-15.519,20.917,7.496,5.997,7.496,5.997l27.485,23.986l16.489,28.485
						c0,0-15.179-73.116-11.13-102.131c4.047-29.014,6.071-48.583,6.071-48.583L1357.206,2974.669z"/>
					
						<linearGradient id="SVGID_00000155128764464766105810000002302069176152422570_" gradientUnits="userSpaceOnUse" x1="1851.0673" y1="2573.1062" x2="2279.7224" y2="2573.1062" gradientTransform="matrix(-1 0 0 1 3300.7168 0)">
						<stop  offset="0" style="stop-color:#311944"/>
						<stop  offset="1" style="stop-color:#893976"/>
					</linearGradient>
					<path style="fill:url(#SVGID_00000155128764464766105810000002302069176152422570_);" d="M1411.188,2157.524
						c0,0,38.462,34.413,38.462,176.115c0,141.701-18.219,449.395-18.219,449.395l-29.154,220.293c0,0-30.228,1.077-50.471-4.996
						c-18.218-82.997-47.906-223.394-33.736-340.802c6.073-127.533-50.608-287.453-50.608-287.453s-48.584,161.945-82.997,242.917
						c-34.414,80.971-99.932,334.637-106.004,352.857c-40.268,3.65-57.467-6.997-57.467-6.997s25.819-272.985,50.11-376.224
						c24.291-103.24,22.268-352.229,62.754-423.08C1224.951,2123.111,1411.188,2157.524,1411.188,2157.524z"/>
					
						<linearGradient id="SVGID_00000163073471770989264580000011773960739840992432_" gradientUnits="userSpaceOnUse" x1="1837.4436" y1="2253.5664" x2="2146.2666" y2="2772.27" gradientTransform="matrix(-1 0 0 1 3300.7168 0)">
						<stop  offset="0" style="stop-color:#311944"/>
						<stop  offset="1" style="stop-color:#893976"/>
					</linearGradient>
					<path style="fill:url(#SVGID_00000163073471770989264580000011773960739840992432_);" d="M1411.187,2157.524
						c0,0,38.464,34.413,38.464,176.115c0,141.701-18.22,449.395-18.22,449.395l-29.154,220.293c0,0-30.228,1.077-50.471-4.996
						c-18.219-82.997-47.906-223.394-33.737-340.802c6.073-127.533-50.607-287.453-50.607-287.453s-48.584,161.945-82.997,242.917
						c-34.414,80.971-99.933,334.638-106.005,352.857c-40.266,3.65-57.466-6.997-57.466-6.997s25.819-272.985,50.11-376.224
						c24.293-103.24,22.268-352.229,62.753-423.081C1224.95,2123.111,1411.187,2157.524,1411.187,2157.524z"/>
					
						<linearGradient id="SVGID_00000150807277215943117630000014162729511295772073_" gradientUnits="userSpaceOnUse" x1="1959.0184" y1="2181.1838" x2="2267.8413" y2="2699.8872" gradientTransform="matrix(-1 0 0 1 3300.7168 0)">
						<stop  offset="0" style="stop-color:#311944"/>
						<stop  offset="1" style="stop-color:#893976"/>
					</linearGradient>
					<path style="opacity:0.25;fill:url(#SVGID_00000150807277215943117630000014162729511295772073_);" d="M1211.385,2417.162
						c-11.992,77.956-35.978,119.933-95.945,173.901c-47.972,35.979-11.993,113.936-29.984,173.901
						c-5.996,17.99-23.986,35.979-29.982,53.969c-22.315,44.63-1.472,99.219-11.59,146.474c-15.745-2.175-22.89-6.554-22.89-6.554
						s25.819-272.985,50.11-376.224c24.293-103.24,22.268-352.23,62.753-423.081c91.093-36.436,277.329-2.023,277.329-2.023
						s38.464,34.413,38.464,176.115c0,11.497-0.122,24.1-0.343,37.531c-39.93,35.337-121.594,43.189-171.961,4.017
						c-3.042-2.283-6.279-3.681-9.623-4.36c-0.155-0.448-0.261-0.751-0.261-0.751s-0.084,0.281-0.211,0.701
						C1244.328,2366.595,1216.586,2396.361,1211.385,2417.162z"/>
					<g>
						<path style="fill:#26264F;" d="M1063.467,3065.466c0,0,5.917,0,5.424,7.642c-0.494,7.641,2.664,33.928-27.408,35.16
							c-30.073,1.232-34.711-2.129-35.697-2.129c-0.987,0,7.889-25.144,7.889-25.144l9.614-12.324l25.882-2.711L1063.467,3065.466z"
							/>
						<path style="fill:#444B8C;" d="M996.788,3091.852c0.641-6.348,4.193-16.34,7.766-24.381
							c5.309-11.945,0.951-16.415,6.025-27.294c1.755-3.762,3.461-7.329,7.167-10.865c0.854-0.813,9.151-8.481,21.236-8.091
							c2.378,0.076,6.04,0.236,9.997,2.345c4.662,2.485,6.999,6.218,8.994,9.494c3.136,5.151,2.416,6.731,7.246,21.488
							c0.389,1.183,1.238,3.759,1.892,7.313c0.501,2.719,0.703,5.002,0.793,6.563c-7.889,0-38.208,1.233-44.615,5.917
							c-6.41,4.682-9.614,12.571-9.614,20.46c0,7.886-3.944,11.584-7.889,11.338
							C1002.262,3105.919,995.262,3099.393,996.788,3091.852z"/>
					</g>
					<path style="fill:#444B8C;" d="M1361.051,3059.796c-6.775,0.106-11.744,5.497-15.492,18.489
						c-3.748,12.994-21.738,24.487-0.75,21.738c20.989-2.747,36.23,26.984,43.725,37.98c7.497,10.993,27.618,20.761,27.118,10.017
						c-0.499-10.743-9.378-15.764-11.876-26.758C1401.277,3110.267,1376.501,3059.554,1361.051,3059.796z"/>
					
						<linearGradient id="SVGID_00000096741365750769150670000011035921006453136821_" gradientUnits="userSpaceOnUse" x1="-1077.1147" y1="-3012.387" x2="-750.0541" y2="-2339.8391" gradientTransform="matrix(0.9906 -0.1367 -0.1367 -0.9906 1758.9594 -1269.0822)">
						<stop  offset="0" style="stop-color:#FFC444"/>
						<stop  offset="0.9964" style="stop-color:#F36F56"/>
					</linearGradient>
					<path style="fill:url(#SVGID_00000096741365750769150670000011035921006453136821_);" d="M1005.067,2174.627
						c-4.981-13.847-36.065-104.805,14.175-187.758c41.128-67.907,112.294-90.062,122.442-93.059
						c61.771-18.242,92.729,5.192,112.219-16.375c33.073-36.602-4.391-161.275-76.857-186.247
						c-81.686-28.148-179.678,80.09-219.389,151.184c-52.097,93.272-39.275,185.972-36.26,205.065
						c7.833,49.613,26.046,87.456,39.541,110.691C975.648,2163.628,990.357,2169.128,1005.067,2174.627z"/>
					
						<linearGradient id="SVGID_00000134957953561570940030000014110599839935623342_" gradientUnits="userSpaceOnUse" x1="3143.7158" y1="1696.4058" x2="3474.9563" y2="2377.5491" gradientTransform="matrix(-1 0 0 1 4550.2798 0)">
						<stop  offset="0" style="stop-color:#FFC444"/>
						<stop  offset="0.9964" style="stop-color:#F36F56"/>
					</linearGradient>
					<path style="fill:url(#SVGID_00000134957953561570940030000014110599839935623342_);" d="M1218.381,1673.589
						c72.914-2.916,129.145-1.76,160.909,29.982c33.55,33.527-0.354,71.378,6.93,159.079
						c11.153,134.269,96.713,167.074,103.151,303.292c2.169,45.897-5.597,83.41-11.63,106.001
						c-18.777,23.385-49.511,56.387-94.868,83.983c-66.004,40.157-104.28,33.155-199.071,59.098
						c-155.05,42.434-168.844,92.969-245.726,80.094c-77.701-13.012-145.873-78.401-137.639-114.31
						c4.933-21.504,36.255-15.413,72.318-48.212c46.479-42.271,28.555-82.622,63.893-128.047
						c50.758-65.247,121.472-25.362,164.727-81.91c43.754-57.203,26.399-169.923-10.483-231.365
						c-24.09-40.131-34.407-87.16-54.906-129.239c-1.704-3.496-3.681-9.229-2.81-16.395c3.327-27.405,49.008-42.27,83.607-53.174
						C1169.554,1675.836,1212.384,1673.827,1218.381,1673.589z"/>
					
						<linearGradient id="SVGID_00000103228761385239723900000010659495149168898983_" gradientUnits="userSpaceOnUse" x1="2038.4137" y1="1611.181" x2="2101.7148" y2="1711.7936" gradientTransform="matrix(-1 0 0 1 3300.7168 0)">
						<stop  offset="0.0036" style="stop-color:#E38DDD"/>
						<stop  offset="1" style="stop-color:#9571F6"/>
					</linearGradient>
					<path style="fill:url(#SVGID_00000103228761385239723900000010659495149168898983_);" d="M1279.797,1670.574l-14.381-4.425
						c0,0-3.76,19.469-49.999,21.902c-25.663,0-42.255-14.38-42.255-14.38l-9.826,7.163c0,0,21.557,26.928,55.842,26.243
						C1263.425,1706.193,1279.797,1670.574,1279.797,1670.574z"/>
					<g>
						
							<linearGradient id="SVGID_00000075152553996790140360000016895857609395372981_" gradientUnits="userSpaceOnUse" x1="2114.8347" y1="1595.7448" x2="2045.2664" y2="1708.2817" gradientTransform="matrix(-1 0 0 1 3300.7168 0)">
							<stop  offset="0" style="stop-color:#FFC444"/>
							<stop  offset="0.9964" style="stop-color:#F36F56"/>
						</linearGradient>
						<path style="fill:url(#SVGID_00000075152553996790140360000016895857609395372981_);" d="M1250.515,1611.35
							c-2.772-21.384-19.675-35.084-23.365-38.017c-15.443-12.276-18.587-13.512-23.891-14.52l-7.244-1.098
							c0,0-0.39,0.01-0.791,0.034c-4.241,0.256-16.95,5.217-19.262,6.842c-7.382,5.191-1.945,41.954,20.433,87.677
							c0.88,3.872,1.76,7.744,2.64,11.615c-19.505,3.429-24.336,6.947-24.489,9.757c-0.332,6.086,21.023,13.85,40.815,14.355
							c24.82,0.633,51.173-10.045,50.669-18.015c-0.205-3.226-4.887-7.205-22.908-11.113c-2.818-3.959-5.632-7.92-8.448-11.879
							C1237.231,1643.889,1252.556,1627.103,1250.515,1611.35z"/>
						
							<linearGradient id="SVGID_00000178894687892547022290000008836935096859017890_" gradientUnits="userSpaceOnUse" x1="1531.7671" y1="1339.5914" x2="1464.4446" y2="1448.4954" gradientTransform="matrix(-0.9717 -0.2361 -0.2361 0.9717 3015.5046 640.4756)">
							<stop  offset="0" style="stop-color:#FFC444"/>
							<stop  offset="0.9964" style="stop-color:#F36F56"/>
						</linearGradient>
						<path style="fill:url(#SVGID_00000178894687892547022290000008836935096859017890_);" d="M1219.833,1603.298
							c-5.629-3.369-9.918,3.873-7.266,10.202c2.651,6.33,11.562,10.291,16.967,6.516
							C1234.939,1616.244,1227.408,1607.832,1219.833,1603.298z"/>
						
							<linearGradient id="SVGID_00000110433139195363925630000013052084129259058061_" gradientUnits="userSpaceOnUse" x1="3319.0928" y1="1115.0713" x2="3902.1282" y2="2041.7654" gradientTransform="matrix(-1 0 0 1 4550.2798 0)">
							<stop  offset="0" style="stop-color:#444B8C"/>
							<stop  offset="0.9964" style="stop-color:#26264F"/>
						</linearGradient>
						<path style="fill:url(#SVGID_00000110433139195363925630000013052084129259058061_);" d="M490.167,1603.191
							c74.102-80.411,246.519-58.359,342.153,6.221c44.437,30.009,67.245,65.455,119.753,68.43
							c39.917,2.262,103.417-12.747,136.861-55.988c4.213-5.448,21.065-28.295,46.369-57.107
							c11.156-12.701,22.25-24.621,39.446-27.317c4.369-0.685,18.902-3.05,28.51,6.336c7.786,7.605,9.696,20.828,7.394,30.359
							c-1.378,5.699-3.159,6.3-2.906,10.031c0.713,10.483,19.807,15.049,18.744,20.328c-0.758,3.772-10.696,2.392-12.408,7.127
							c-1.875,5.188,9.039,9.653,13.728,22.703c8.785,5.881,14.336,20.516,16.256,40.098c2.823,28.786-0.069,52.175-5.524,69.792
							c-26.262,84.817-45.049,145.484-90.511,179.363c-60.191,44.853-114.39,3.44-267.501-3.11
							c-209.655-8.969-261.928,62.097-337.28,13.48C449.162,1873.236,413.231,1686.678,490.167,1603.191z"/>
					</g>
					
						<linearGradient id="SVGID_00000073691578291426841130000017757569020583506050_" gradientUnits="userSpaceOnUse" x1="3106.8516" y1="1712.2861" x2="3432.6365" y2="2382.2104" gradientTransform="matrix(-1 0 0 1 4550.2798 0)">
						<stop  offset="0" style="stop-color:#FFC444"/>
						<stop  offset="0.9964" style="stop-color:#F36F56"/>
					</linearGradient>
					<path style="fill:url(#SVGID_00000073691578291426841130000017757569020583506050_);" d="M1589.846,1439.06
						c1.87,17.542,8.193,95.144-45.334,160.667c-50.015,61.224-120.848,73.452-134.014,75.443
						c-63.686,9.623-91.151-17.823-113.406,0.878c-37.766,31.735-17.7,160.358,50.671,195.006
						c77.069,39.053,188.942-54.771,237.998-119.768c64.362-85.271,64.334-178.855,63.957-198.18
						c-0.975-50.218-13.842-90.196-24.033-115.057c-4.187-1.261-10.559-2.656-18.372-2.385
						C1599.867,1435.923,1593.859,1437.6,1589.846,1439.06z"/>
					
						<linearGradient id="SVGID_00000170987470508790375810000003554667111670577288_" gradientUnits="userSpaceOnUse" x1="3095.8789" y1="1719.6698" x2="3427.1189" y2="2400.8115" gradientTransform="matrix(-1 0 0 1 4550.2798 0)">
						<stop  offset="0" style="stop-color:#FFC444"/>
						<stop  offset="0.9964" style="stop-color:#F36F56"/>
					</linearGradient>
					<path style="opacity:0.3;fill:url(#SVGID_00000170987470508790375810000003554667111670577288_);" d="M935.742,2443.796
						c18.644-19.115-1.879-57.659,25.661-86.315c25.56-26.596,54.499-5.11,95.648-27.994
						c52.776-29.353,38.233-83.089,88.648-111.978c36.253-20.774,53.289,1.562,109.645-9.332
						c56.261-10.873,124.784-49.66,158.634-118.975c14.383-29.452,19.684-58.732,20.387-84.905
						c25.304,45.208,51.55,88.531,55.006,161.644c2.169,45.897-5.597,83.41-11.63,106.001
						c-18.777,23.385-49.511,56.387-94.868,83.982c-66.004,40.157-104.28,33.156-199.071,59.099
						c-155.05,42.434-168.844,92.969-245.726,80.094c-49.659-8.315-95.319-38.025-119.735-67.759
						C889.996,2459.257,922.211,2457.669,935.742,2443.796z"/>
				</g>
			</g>
		</g>
	</g>
</g>
</svg>
